<?xml version="1.0" encoding="UTF-8" standalone="no"?>
<!-- Created with Inkscape (http://www.inkscape.org/) -->

<svg
   width="200mm"
   height="200mm"
   viewBox="0 0 200 200"
   version="1.1"
   id="svg1"
   inkscape:version="1.3.2 (091e20ef0f, 2023-11-25, custom)"
   sodipodi:docname="icon.svg"
   xmlns:inkscape="http://www.inkscape.org/namespaces/inkscape"
   xmlns:sodipodi="http://sodipodi.sourceforge.net/DTD/sodipodi-0.dtd"
   xmlns="http://www.w3.org/2000/svg"
   xmlns:svg="http://www.w3.org/2000/svg">
  <sodipodi:namedview
     id="namedview1"
     pagecolor="#ffffff"
     bordercolor="#666666"
     borderopacity="1.0"
     inkscape:showpageshadow="2"
     inkscape:pageopacity="0.0"
     inkscape:pagecheckerboard="0"
     inkscape:deskcolor="#d1d1d1"
     inkscape:document-units="mm"
     inkscape:zoom="0.78710938"
     inkscape:cx="385.58809"
     inkscape:cy="442.12407"
     inkscape:window-width="1908"
     inkscape:window-height="1052"
     inkscape:window-x="4"
     inkscape:window-y="20"
     inkscape:window-maximized="1"
     inkscape:current-layer="layer1" />
  <defs
     id="defs1">
    <inkscape:path-effect
       effect="fillet_chamfer"
       id="path-effect4"
       is_visible="true"
       lpeversion="1"
       nodesatellites_param="F,0,0,1,0,0,0,1 @ F,0,0,1,0,0,0,1"
       radius="0"
       unit="px"
       method="auto"
       mode="F"
       chamfer_steps="1"
       flexible="false"
       use_knot_distance="true"
       apply_no_radius="true"
       apply_with_radius="true"
       only_selected="false"
       hide_knots="false" />
  </defs>
  <g
     inkscape:label="Слой 1"
     inkscape:groupmode="layer"
     id="layer1">
    <path
       id="path3"
       style="fill:#ffffff;fill-opacity:1;stroke:none;stroke-width:14.7662;stroke-dasharray:none;stroke-opacity:1;paint-order:stroke fill markers"
       d="M 106.42771,38.442995 C 89.299133,38.462589 74.580586,51.133773 71.259982,68.66209 69.85811,68.379409 68.431903,68.236883 67.002166,68.236596 55.5242,68.264948 46.054537,77.285905 45.397214,88.817824 30.397546,91.49727 19.449703,104.72695 19.422539,120.20633 c 0.03602,15.55181 11.056083,28.66599 25.86688,31.35233 l 2.689636,0.57841 103.678195,-0.24728 c 16.29621,-0.38189 29.3246,-14.434 29.3465,-31.65237 -0.004,-14.72699 -9.60759,-27.512067 -23.18359,-30.862861 1.04216,-2.134759 1.5824,-4.448495 1.58526,-6.789264 1.8e-4,-9.165726 -8.06403,-16.596157 -18.01195,-16.59636 -0.1071,0.0063 -0.2921,0.129121 -0.32116,0.02142 C 136.68954,49.762527 122.60863,38.42449 106.42771,38.443 Z"
       sodipodi:nodetypes="scccccccccccss" />
  </g>
</svg>
